<?xml version="1.0" encoding="utf-8"?>
<!-- Generator: Adobe Illustrator 18.1.1, SVG Export Plug-In . SVG Version: 6.00 Build 0)  -->
<!DOCTYPE svg PUBLIC "-//W3C//DTD SVG 1.1//EN" "http://www.w3.org/Graphics/SVG/1.1/DTD/svg11.dtd">
<svg version="1.1" id="Layer_1" xmlns="http://www.w3.org/2000/svg" xmlns:xlink="http://www.w3.org/1999/xlink" x="0px" y="0px"
	 width="120px" height="33px" viewBox="0 0 120 33" style="enable-background:new 0 0 120 33;" xml:space="preserve">
<path style="fill:#7C7C81;" d="M59.5,14.1c-5.2-1.3-6.5-2.2-6.5-4.4V9.6c0-1.8,1.6-3.3,4.4-3.3c2.1,0,4.2,0.7,6.2,2.1
	c0.4,0.2,0.8,0.4,1.2,0.4c1.2,0,2.2-1,2.2-2.3c0-1-0.5-1.6-1-1.9C63.7,2.9,60.9,2,57.5,2c-5.4,0-9.3,3.3-9.3,8.1v0.1
	c0,5.1,3.3,6.9,9,8.3c5,1.2,6.1,2.3,6.1,4.3v0.1c0,2.1-1.9,3.5-4.8,3.5c-2.9,0-5.3-1-7.6-2.9c-0.3-0.2-0.7-0.4-1.4-0.4
	c-1.2,0-2.3,1-2.3,2.3c0,0.8,0.4,1.5,0.9,1.9c3,2.3,6.5,3.5,10.2,3.5c5.7,0,9.7-3.1,9.7-8.3v-0.1C68.2,17.6,65.2,15.5,59.5,14.1"/>
<path style="fill:#7C7C81;" d="M79.6,13.4c1.1,0,2.1-0.9,2.1-2.1c0-1.2-0.9-2.1-2.1-2.1h-3.7V5.6c0-1.3-1-2.4-2.3-2.4
	c-1.3,0-2.4,1.1-2.4,2.4v3.6h-0.8c-1.1,0-2,0.9-2,2.1c0,1.2,0.9,2.1,2,2.1h0.8v11.1c0,4.6,2.4,6.2,5.9,6.2c1.2,0,2.2-0.2,3.2-0.6
	c0.7-0.3,1.2-1,1.2-1.9c0-1.1-0.9-2-2-2c-0.2,0-0.6,0.1-1.2,0.1c-1.6,0-2.5-0.8-2.5-2.6V13.4H79.6z"/>
<path style="fill:#7C7C81;" d="M86.5,9.2c-1.3,0-2.3,1.1-2.3,2.4v16.7c0,1.4,1.1,2.4,2.3,2.4c1.3,0,2.4-1,2.4-2.4V11.6
	C88.9,10.3,87.8,9.2,86.5,9.2"/>
<path style="fill:#7C7C81;" d="M86.5,1.4c-1.5,0-2.7,0.9-2.7,2.4V4c0,1.4,1.2,2.4,2.7,2.4c1.5,0,2.7-1,2.7-2.4V3.8
	C89.2,2.4,88,1.4,86.5,1.4"/>
<path style="fill:#7C7C81;" d="M97.4,3.6c0-1.3-1-2.4-2.4-2.4c-1.3,0-2.3,1.1-2.3,2.4v24.7c0,1.4,1,2.4,2.3,2.4c1.3,0,2.4-1,2.4-2.4
	"/>
<path style="fill:#7C7C81;" d="M104.9,18.3c0.4-3.3,2.4-5.5,5.3-5.5c3.1,0,4.9,2.4,5.2,5.5H104.9z M114.3,9.6
	c-4.6-2.6-11.1,0.6-13.1,5.3c-1.1,2.7-1,3.5-1,4.8v0.1c0,6.5,4.6,10.9,10.5,10.9c3.2,0,5.5-1.1,7.4-2.8c0.3-0.4,0.6-0.9,0.6-1.5
	c0-1.1-0.8-2-1.9-2c-0.5,0-0.9,0.2-1.2,0.4c-1.3,1.1-2.9,1.8-4.8,1.8c-3,0-5.4-1.9-5.9-5.3h12.8c1.2,0,2.2-1,2.2-2.3
	C120,15.4,118.1,11.4,114.3,9.6"/>
<path style="fill:#7C7C81;" d="M12.9,27c-0.4,0.5-0.9,0.9-1.3,1.2C10.7,29,9.9,29.6,9.2,30c-1.8,1.1-3.1,1.3-3.7,1.3
	c-0.1,0-0.2,0-0.3,0c-0.6-0.1-1-0.3-1.2-0.6c-0.5-0.9-1.1-1.6-1.6-2.1L8,26c0,0,0,0,0,0C9.4,26.5,11.1,26.8,12.9,27 M9.3,18.7
	C9.2,18.8,9.1,18.9,9,19c-0.1,0.1-0.1,0.2-0.2,0.3c-0.1,0.1-0.2,0.2-0.2,0.3c-0.1,0.1-0.1,0.2-0.2,0.3c-0.1,0.1-0.1,0.2-0.2,0.3
	c-0.1,0.1-0.1,0.2-0.2,0.3c-0.1,0.1-0.1,0.2-0.2,0.4c0,0.1-0.1,0.2-0.1,0.3c-0.1,0.1-0.1,0.3-0.2,0.4c0,0.1-0.1,0.2-0.1,0.3
	c0,0.1-0.1,0.3-0.1,0.4c0,0.1-0.1,0.2-0.1,0.3c0,0.1-0.1,0.3-0.1,0.4C7,23,7,23.1,7,23.2c0,0.2-0.1,0.3-0.1,0.5c0,0.1,0,0.2,0,0.2
	c0,0.2,0,0.5,0,0.8L1.6,27l-1.1,0.5C0.2,27.6,0,27.9,0,28.2c0,0.3,0.1,0.6,0.3,0.8c0,0,0.6,0.4,1.3,1.2c0.3,0.4,0.7,0.8,1,1.4
	C3,32.3,3.9,32.9,5,33c0.1,0,0.3,0,0.5,0h0.1c0.4,0,0.9-0.1,1.5-0.2c1.8-0.5,4.6-1.9,7.9-5.7c0.1,0,0.3,0,0.4,0c0.1,0,0.3,0,0.4,0
	c1.3,0,2.5-0.1,3.6-0.2c2.9-0.3,5.3-0.9,6.4-1.3c0.3-0.1,0.5-0.4,0.5-0.8c0-0.3,0-0.5-0.1-0.8c0-0.1,0-0.2,0-0.3
	c0-0.2,0-0.3-0.1-0.5c0-0.1-0.1-0.2-0.1-0.3c0-0.1-0.1-0.3-0.1-0.4c0-0.1-0.1-0.2-0.1-0.3c0-0.1-0.1-0.3-0.1-0.4
	c0-0.1-0.1-0.2-0.1-0.3c-0.1-0.1-0.1-0.2-0.2-0.4c-0.1-0.1-0.1-0.2-0.2-0.3c-0.1-0.1-0.1-0.2-0.2-0.3C25.1,20.2,25,20.1,25,20
	c-0.1-0.1-0.1-0.2-0.2-0.3c-0.1-0.1-0.1-0.2-0.2-0.2c-0.1-0.1-0.1-0.2-0.2-0.2c0,0,0,0,0,0c0-0.1-0.1-0.1-0.1-0.2
	c-0.2,0.1-0.4,0.3-0.6,0.5c-0.2,0.2-0.4,0.4-0.7,0.5l0,0l-0.2,0.1l0.2,0.2c0.8,1,1.3,2.2,1.5,3.5c-1.7,0.5-4.9,1.1-8.3,1.2
	c-0.1,0-0.3,0-0.4,0c-0.2,0-0.4,0-0.6,0c-0.8,0-1.5,0-2.2-0.1c-1.6-0.1-3-0.4-4.3-0.8c0.2-2.6,2-5,4.6-6.1c0.3-0.1,0.6-0.3,0.9-0.4
	c0.1,0,0.2-0.1,0.2-0.2c0,0,0-0.1,0-0.1c0,0,0-0.1,0-0.1c0,0,0-0.1-0.1-0.1c-0.1-0.1-0.4-0.4-0.5-1.4l0,0c-0.1,0-0.1,0-0.2,0.1
	c0,0,0,0,0,0c-0.1,0-0.1,0.1-0.2,0.1c-0.1,0-0.2,0.1-0.4,0.1c-0.1,0-0.2,0.1-0.4,0.1c-0.1,0-0.2,0.1-0.3,0.1
	c-0.1,0.1-0.2,0.1-0.3,0.2c-0.1,0.1-0.2,0.1-0.3,0.2c-0.1,0.1-0.2,0.1-0.3,0.2c-0.1,0.1-0.2,0.1-0.3,0.2c-0.1,0.1-0.2,0.2-0.3,0.2
	c-0.1,0.1-0.2,0.1-0.3,0.2c-0.1,0.1-0.2,0.2-0.3,0.3C10,18,9.9,18.1,9.8,18.2c-0.1,0.1-0.2,0.2-0.3,0.3C9.5,18.5,9.4,18.6,9.3,18.7
	 M15.3,24.1c0-0.1,0-0.2,0-0.4c-0.1-1.9,1-4,1.3-4.6c0.1-0.1,0.1-0.2,0.1-0.2l0,0l0,0c0-0.1,0.1-0.2,0.1-0.3l0-0.2l-0.1,0l-0.1,0
	c-0.2,0-0.3,0-0.4,0c0,0,0,0,0,0c-0.1,0-0.1,0-0.2,0h0l0,0c0,0-0.1,0-0.1,0c-0.1,0-0.2,0-0.2,0l-0.1,0l-0.1,0.1
	c0,0.1-0.1,0.1-0.1,0.2c0,0,0,0.1,0,0.1c-0.1,0.1-0.1,0.2-0.2,0.3c-0.5,1-1.3,2.9-1.2,4.7c0,0.1,0,0.2,0,0.3c0,0.1,0,0.2,0,0.3
	l0,0.2l0.2,0c0.3,0,0.6,0,0.9,0l0.2,0l0-0.2C15.3,24.2,15.3,24.2,15.3,24.1C15.3,24.1,15.3,24.1,15.3,24.1 M31.6,7l-1.4,0.7
	l-7.9-1.4c0,0-0.1,0-0.1,0c-0.4,0-0.7,0.3-0.7,0.6c-0.1,0.4,0.2,0.8,0.6,0.9l5.8,1.1l-5.8,2.9L12.5,7l9.6-4.8L31.6,7z M17,11.6
	l4.7,2.3c0.1,0.1,0.3,0.1,0.4,0.1c0.2,0,0.3,0,0.4-0.1l4.5-2.2v3.2c-0.9,0.1-2.5,0.3-4,1.2c-0.2,0.1-0.4,0.3-0.6,0.4
	c-0.1,0.1-0.3,0.2-0.4,0.3c-1.7-1.4-3.6-1.8-5-1.9h0v-0.6v-0.7V11.6z M35,7c0-0.4-0.2-0.8-0.6-1L22.5,0.1C22.4,0,22.2,0,22.1,0
	c-0.2,0-0.3,0-0.4,0.1l-11.9,6C9.4,6.2,9.1,6.6,9.2,7c0,0.4,0.2,0.8,0.6,0.9l5.2,2.6v3.4v0.3v0.6v0.8v0.2c0,0.3,0.1,0.6,0.3,0.8
	c0.2,0.2,0.4,0.3,0.6,0.3c0,0,0,0,0,0c0,0,0.1,0,0.1,0c0,0,0.1,0,0.3,0c0.7,0,2.9,0.1,4.6,1.7l0,0c0,0,0.1,0,0.1,0.1l0.2,0.2
	l0.1,0.1l0,0l0,0c0.1,0.1,0.2,0.1,0.3,0.1c0.1,0,0.1,0,0.2,0c0.2,0,0.4-0.1,0.6-0.2l0.3-0.3c0,0,0.1,0,0.1-0.1
	c0.1-0.1,0.3-0.2,0.4-0.4c0.2-0.1,0.4-0.3,0.6-0.4c0.2-0.1,0.4-0.2,0.6-0.3c0,0,0.1,0,0.1,0c1.3-0.6,2.5-0.6,3-0.6
	c0.1,0,0.2,0,0.2,0c0,0,0.1,0,0.1,0c0.3,0,0.5-0.1,0.7-0.3c0.2-0.2,0.3-0.5,0.3-0.8v-5.2l1.6-0.8l0,2.8c-0.3,0.2-0.4,0.6-0.4,0.9
	c0,0.4,0.2,0.8,0.5,1c-0.3,0.8-0.5,1.9,0,2.6l0.1,0.1l0.1,0l1.7-0.3l0.2,0l0-0.2c0-0.1,0-1.3-0.5-2.4c0.2-0.2,0.3-0.5,0.3-0.8
	c0-0.4-0.2-0.7-0.4-0.9l0-3.5l2.3-1.1C34.8,7.7,35,7.4,35,7"/>
</svg>
